<svg id="Lag_2" data-name="Lag 2" xmlns="http://www.w3.org/2000/svg" width="1123.37" height="255.82" viewBox="0 0 1123.37 255.82">
  <title>googlemapsoverlay-01</title>
  <polygon points="637.14 189.38 542.86 177.93 553.48 88.03 647.77 99.47 637.14 189.38" fill="#5669af" stroke="#1d1d1b" stroke-miterlimit="10"/>
  <polygon points="780.61 202.15 697.87 194.38 705.51 110.75 788.25 118.52 780.61 202.15" fill="#5669af" stroke="#1d1d1b" stroke-miterlimit="10"/>
  <polygon points="702.37 148.63 643.07 143.06 644.01 132.76 703.31 138.33 702.37 148.63" fill="#5669af" stroke="#1d1d1b" stroke-miterlimit="10"/>
  <polygon points="734.33 113.56 709.98 111.28 710.75 102.83 735.1 105.11 734.33 113.56" fill="#5669af" stroke="#1d1d1b" stroke-miterlimit="10"/>
  <polygon points="786.85 118.73 762.51 116.44 763.28 108 787.63 110.28 786.85 118.73" fill="#5669af" stroke="#1d1d1b" stroke-miterlimit="10"/>
  <polygon points="724.4 204.99 700.05 202.7 700.82 194.25 725.17 196.54 724.4 204.99" fill="#5669af" stroke="#1d1d1b" stroke-miterlimit="10"/>
  <polygon points="778.39 210.9 754.04 208.62 754.81 200.17 779.16 202.45 778.39 210.9" fill="#5669af" stroke="#1d1d1b" stroke-miterlimit="10"/>
  <polygon points="538.85 141.04 541.75 116.5 550.08 117.51 547.18 142.05 538.85 141.04" fill="#5669af" stroke="#1d1d1b" stroke-miterlimit="10"/>
  <line x1="549.62" y1="121.44" x2="644.01" y2="132.77" fill="none" stroke="#1d1d1b" stroke-miterlimit="10"/>
  <line x1="545.91" y1="150.56" x2="640.3" y2="161.89" fill="none" stroke="#1d1d1b" stroke-miterlimit="10"/>
  <line x1="595.28" y1="137.48" x2="642.47" y2="143.15" fill="none" stroke="#1d1d1b" stroke-miterlimit="10"/>
  <line x1="608.34" y1="139.05" x2="605.78" y2="157.93" fill="none" stroke="#1d1d1b" stroke-miterlimit="10"/>
  <line x1="613.87" y1="139.82" x2="611.31" y2="158.7" fill="none" stroke="#1d1d1b" stroke-miterlimit="10"/>
  <line x1="618.89" y1="140.8" x2="616.32" y2="159.67" fill="none" stroke="#1d1d1b" stroke-miterlimit="10"/>
  <line x1="624.17" y1="141.26" x2="621.6" y2="160.13" fill="none" stroke="#1d1d1b" stroke-miterlimit="10"/>
  <line x1="629.9" y1="141.86" x2="627.33" y2="160.74" fill="none" stroke="#1d1d1b" stroke-miterlimit="10"/>
  <line x1="635.18" y1="142.32" x2="632.61" y2="161.2" fill="none" stroke="#1d1d1b" stroke-miterlimit="10"/>
  <line x1="640.68" y1="142.77" x2="638.11" y2="161.65" fill="none" stroke="#1d1d1b" stroke-miterlimit="10"/>
</svg>
